<svg id="Layer_3" enable-background="new 0 0 64 64" height="512" viewBox="0 0 64 64" width="512" xmlns="http://www.w3.org/2000/svg"><g><path d="m21 34v-19c0-1.105.895-2 2-2h36c1.105 0 2 .895 2 2v19z" fill="#d5cec2"/><path d="m48.873 25.211c0-4.358-.954-8.49-2.654-12.211h-23.219c-1.105 0-2 .895-2 2v19h26.538c.867-2.776 1.335-5.727 1.335-8.789z" fill="#e7e4dd"/><path d="m21 17h40v-2c0-1.105-.895-2-2-2h-36c-1.105 0-2 .895-2 2z" fill="#758190"/><path d="m10 42h48c1.105 0 2-.895 2-2v-2h-50z" fill="#d5cec2"/><path d="m4 31.028v-3.785c0-.796.316-1.559.879-2.121l6.243-6.243c.562-.563 1.325-.879 2.121-.879h7.757v20h-17v-2.972" fill="#a8b0bc"/><path d="m14 38.028c0-2.209 1.791-4 4-4v-3h-14v6.972h10z" fill="#758190"/><path d="m4 31.028 14-.028v-10h-9l-4.121 4.121c-.563.563-.879 1.326-.879 2.122z" fill="#c7e2fc"/><path d="m6 35.028h-2c-1.105 0-2-.895-2-2 0-1.105.895-2 2-2h2z" fill="#f7d881"/><path d="m10 44.028h-3c-1.657 0-3-1.343-3-3v-3h6z" fill="#a8b0bc"/><path d="m21 34h41v4h-41z" fill="#758190"/><circle cx="18" cy="46.028" fill="#666" r="5"/><circle cx="39" cy="46.028" fill="#666" r="5"/><circle cx="52" cy="46.028" fill="#666" r="5"/><g><path d="m18 48.026c-1.103 0-2-.896-2-1.999 0-1.104.897-2 2-2s2 .896 2 2c0 1.103-.897 1.999-2 1.999zm0-2.001v.002z" fill="#d5cec2"/></g><g><path d="m39 48.026c-1.103 0-2-.896-2-1.999 0-1.104.897-2 2-2s2 .896 2 2c0 1.103-.897 1.999-2 1.999zm0-2.001v.002z" fill="#d5cec2"/></g><g><path d="m52 48.026c-1.103 0-2-.896-2-1.999 0-1.104.897-2 2-2s2 .896 2 2c0 1.103-.897 1.999-2 1.999zm0-2.001v.002z" fill="#d5cec2"/></g><g><path d="m9 33.027h4v1.999h-4z" fill="#a8b0bc"/></g><path d="m4 41.028c0 .342.069.664.174.97h5.826v-1.999h-6z" fill="#758190"/><g fill="#e39854"><path d="m29 23v-2h-4c-.553 0-1 .447-1 1v9h2v-4h3v-2h-3v-2z"/><path d="m35.554 27.167-.958-.638c.841-.532 1.404-1.464 1.404-2.529 0-1.654-1.346-3-3-3h-2c-.266 0-.52.105-.707.292-.188.187-.293.442-.293.708v9h2v-3.798l1.999 1.333v2.465h2v-3c0-.335-.167-.647-.445-.833zm-3.554-4.167h1c.551 0 1 .448 1 1 0 .551-.448 1-1 1h-1z"/><path d="m42 23v-2h-4c-.553 0-1 .447-1 1v8c0 .553.447 1 1 1h4v-2h-3v-2h3v-2h-3v-2z"/><path d="m48 23v-2h-4c-.553 0-1 .447-1 1v8c0 .553.447 1 1 1h4v-2h-3v-2h3v-2h-3v-2z"/></g><g><path d="m50 29h12v2h-12z" fill="#c16b3f"/></g><g><path d="m50 26h10v2h-10z" fill="#c16b3f"/></g><g><path d="m50 23h8v2h-8z" fill="#c16b3f"/></g><path d="m4.879 25.121c-.563.563-.879 1.326-.879 2.122v3.785l7.597-.015c2.691-2.293 4.403-5.701 4.403-9.513 0-.169-.019-.333-.025-.5h-6.975z" fill="#ebf7fe"/><path d="m46.219 13h-23.219c-1.105 0-2 .895-2 2v2h26.704c-.4-1.378-.897-2.713-1.485-4z" fill="#8892a0"/><path d="m47.538 34h-26.538v4h24.957c.62-1.284 1.15-2.62 1.581-4z" fill="#8892a0"/><g><path d="m62 32.999h-40v-5-10h37.999v5h2v-8c0-1.654-1.346-3-3-3h-35.999c-1.654 0-3 1.346-3 3v2h-6.757c-1.068 0-2.073.416-2.829 1.171l-6.243 6.243c-.755.756-1.171 1.761-1.171 2.829v2.97c-1.161.414-2 1.513-2 2.815 0 1.301.838 2.401 2 2.815v2.156c0 .006.003.01.003.016 0 .005-.003.009-.003.013v3c0 2.205 1.794 3.999 4 3.999h3c.553 0 1-.447 1-1v-1.028h1.83c-.524.89-.83 1.924-.83 3.029 0 3.308 2.691 5.999 6 5.999 3.308 0 6-2.691 6-5.999 0-1.106-.306-2.139-.83-3.029h10.66c-.524.89-.83 1.924-.83 3.029 0 3.308 2.691 5.999 6 5.999 3.308 0 6-2.691 6-5.999 0-1.106-.306-2.139-.83-3.029h2.66c-.524.89-.83 1.924-.83 3.029 0 3.308 2.691 5.999 6 5.999 3.308 0 6-2.691 6-5.999 0-1.106-.306-2.139-.83-3.029h.829c1.654 0 3-1.346 3-2.999v-1.001h1c.553 0 1-.447 1-1v-3.999c.001-.553-.447-1-.999-1zm-39-18.999h36c.552 0 1 .448 1 1v1h-38v-1c0-.552.448-1 1-1zm-9.758 5h6.758v14.999 3h-4.806c.422-1.147 1.515-1.972 2.806-1.972.553 0 1-.447 1-.999v-3h-.006c0-.01.006-.019.006-.029v-9.999c0-.553-.447-1-1-1h-6.585l.414-.414c.371-.373.887-.586 1.413-.586zm-4.242 20.999h-4v-.972h4zm-4-3.001v-.972h1c.553 0 1-.447 1-1v-3.027h10v1.128c-1.945.397-3.473 1.931-3.882 3.871zm-1.001-4.97h1v1.999h-1c-.551-.001-.999-.449-.999-1s.448-.999.999-.999zm1.586-6.2 3.829-3.828h7.586v8h-11v.029h-1v-2.786c0-.527.213-1.043.585-1.415zm1.415 17.198c-.749 0-1.395-.418-1.738-1.028h3.738v1.028zm11 7c-2.206 0-4-1.794-4-3.999 0-2.206 1.794-4 4-4s4 1.794 4 4c0 2.205-1.794 3.999-4 3.999zm21 0c-2.206 0-4-1.794-4-3.999 0-2.206 1.794-4 4-4s4 1.794 4 4c0 2.205-1.794 3.999-4 3.999zm13 0c-2.206 0-4-1.794-4-3.999 0-2.206 1.794-4 4-4s4 1.794 4 4c0 2.205-1.794 3.999-4 3.999zm6.999-10.027c0 .551-.448.999-1 .999h-2.738c-.94-.612-2.059-.971-3.261-.971-1.203 0-2.323.359-3.263.972h-6.474c-.94-.612-2.059-.972-3.263-.972-1.203 0-2.323.359-3.263.972h-14.474c-.94-.612-2.059-.972-3.263-.972-1.203 0-2.323.359-3.263.972h-3.737v-2.001h10s0 0 0 0h37.999zm2.001-3.001h-39v-1.999h39z"/><path d="m18 44.027c-1.103 0-2 .896-2 2 0 1.103.897 1.999 2 1.999s2-.896 2-1.999-.897-2-2-2z"/><path d="m39 44.027c-1.103 0-2 .896-2 2 0 1.103.897 1.999 2 1.999s2-.896 2-1.999-.897-2-2-2z"/><path d="m52 44.027c-1.103 0-2 .896-2 2 0 1.103.897 1.999 2 1.999s2-.896 2-1.999-.897-2-2-2z"/><path d="m9 33.027h4v1.999h-4z"/><path d="m29 23v-2h-4c-.553 0-1 .447-1 1v9h2v-4h3v-2h-3v-2z"/><path d="m36 24c0-1.654-1.346-3-3-3h-2c-.266 0-.52.105-.707.292-.188.187-.293.442-.293.708v9h2v-3.798l1.999 1.333v2.465h2v-3c0-.334-.167-.647-.445-.832l-.958-.638c.841-.533 1.404-1.465 1.404-2.53zm-4-1h1c.551 0 1 .448 1 1 0 .551-.448 1-1 1h-1z"/><path d="m42 23v-2h-4c-.553 0-1 .447-1 1v8c0 .553.447 1 1 1h4v-2h-3v-2h3v-2h-3v-2z"/><path d="m48 23v-2h-4c-.553 0-1 .447-1 1v8c0 .553.447 1 1 1h4v-2h-3v-2h3v-2h-3v-2z"/><path d="m50 29h12v2h-12z"/><path d="m50 26h10v2h-10z"/><path d="m50 23h8v2h-8z"/></g></g></svg>